<svg id="Layer_1" data-name="Layer 1" xmlns="http://www.w3.org/2000/svg" viewBox="0 0 1920 1080">
	<path d="M623.58,117.25H724c1.23,1.23,2.71,2.1,3.29,3.37q15.06,33,29.95,66.07c1.42,3.14,3,6.21,4.47,9.35,17.12,37.75,34.58,75.35,51.21,113.32,11.91,27.21,23.33,54.62,36.47,81.3,4.86,9.87,8.09,20.54,12.92,33.06,23.31-35.31,34.06-74.48,54.78-110L965,415.24l48.55-103.12,51,110.6c4.36-6.41,10.65-11.57,11-17.13.68-9.88,6.24-17.16,9.83-25.27,10.65-24,23.73-47,33.6-71.29,12-29.47,25.48-58.21,38.53-87.16,13.91-30.87,26.45-62.38,42.58-92.25,1.92-3.56,2.12-8.05,3.19-12.43H1306c-5.29,13.55-9.52,26.42-15.24,38.6-17.64,37.56-35.86,74.84-53.82,112.24-10.18,21.19-21.7,41.87-30.09,63.75-9.46,24.68-23.59,47-33.23,71.44-8.43,21.35-20.72,40.81-29.65,61.71-20.39,47.72-42.82,94.42-65.63,141-4.24,8.65-7.3,17.87-12.31,30.32L966.31,421.65c-10.71,9.7-14.14,23.59-19.66,35.51-2.78,6-5.25,12.78-8.18,19-16.21,34.4-33.77,68.22-48.61,103.19-6.48,15.28-14.41,29.88-20.42,45.35-1,2.58-3.46,4.59-6.32,8.23-8.62-18.43-16.87-35.94-25-53.51-13.64-29.47-27.1-59-40.81-88.47q-28.89-62-58-124c-10.53-22.54-20.94-45.13-31.46-67.68Q678,235.4,648.19,171.54C640,154,632.19,136.27,623.58,117.25Z"/>
	<path d="M1013.24,314.06c-16.85-37.86-32.11-72.13-47.89-107.56C949.88,240.74,934.4,275,918,311.28c-16.66-20-20.83-43.6-32-63.6-11.84-21.18-20.51-43.74-30.24-65.87-9.41-21.4-20.68-42-31.71-64.07H926.7c12.55,27.18,25.73,55.75,38.74,83.94l38.42-84.39h98.85c-2.2,18.1-12,32.55-19.09,47.89-14.79,32-30.57,63.49-45.71,95.31-4.14,8.71-7.22,17.91-11.21,26.7C1023.1,295.11,1018.93,302.77,1013.24,314.06Z"/>
	<path d="M245.76,886.49c-2.9.89-4.22,1.64-5.55,1.66-19.31.24-19.83-.64-26.58-20.37-5.79-17-12.58-33.58-19.09-50.29-2.48-6.39-5.39-12.6-9.33-21.71-8.67,30.64-21.6,56.42-29.94,83.9-1.52,5-4.71,8.89-11.05,8.58-6-.3-12-.06-18.1-.06L74.05,732.12h39.16l27,82.13c10.53-28.33,20.32-54.65,30.45-81.91a4.35,4.35,0,0,1,2.5-1c8.78.32,19.83-2.26,25.79,2.07,9.39,6.83,10.17,20.67,14.67,31.48,5.83,14,10.57,28.46,16,42.62.67,1.75,3,2.88,4.25,4.07,8.29-26.44,16.58-52.85,25-79.66h38.88c-10.44,32.23-21,64.64-31.43,97.09-4.23,13.19-7.82,26.6-12.31,39.7C251.83,875.19,248.25,881.23,245.76,886.49Z"/>
	<path d="M1359.15,772H1398c1.1,3,2.06,5.58,3,8.2,31.87-16,37.13-19.74,70.41,9.33,27.33-21.46,23.73-20.11,65.36-17.93,3.51,3.57,6.94,7.57,10.88,11,10,8.62,13.36,20,13.52,32.47.31,23.81.09,47.62.09,72.3h-35.93c0-22.05-.07-43.58,0-65.11,0-8-2.09-14.44-9.29-19.36-16.85-11.5-34.39,5.25-35.5,21.2-.83,11.88-.16,23.87-.16,35.81v27.48h-35c-2.07-8.24-.63-17.77-.86-27.13-.24-9.7,0-19.4-.09-29.1-.08-6.41.49-12.45-4.16-18.52-5.54-7.23-12.35-13.05-18.43-11.69-15.82,3.54-22.07,9.29-22.23,21.35-.24,17.16.1,34.33-.12,51.49-.15,11.14-3.19,14.36-14.09,14.36-20.35,0-27.42,5-26.49-24.64C1359.89,833.65,1359.15,803.78,1359.15,772Z"/>
	<path d="M784.21,731.22c24.41,0,47.47-.92,70.4.35,14,.77,27.77,5,38,16,11.13,12,22.6,22.34,27.82,40,6.56,22.09,1.41,40.62-7.41,59-6.46,13.5-18,23.82-31.1,31.32-11,6.29-23.65,8.87-36,10-15.53,1.4-31.29.51-46.94.28-12.23-.18-14.68-2.82-14.71-16C784.14,826,784.21,779.86,784.21,731.22ZM825,852.32c8.74,0,15.49.27,22.21-.06,17.06-.83,32.9-15.13,35.76-32.07.36-2.14.06-4.42.59-6.49,2.83-10.91-.9-26.47-7.93-33.83-8.39-8.77-18-14-30.65-12.87-6.5.59-13.11.1-20,.1Z"/>
	<path d="M1341.18,770.74c0,35.7.09,68.54,0,101.38-.05,13.23-2.46,15.66-14.74,16-4.48.15-9,.08-13.47,0-2.13,0-4.25-.33-6.19-.49-1.1-3-2-5.59-2.94-8-1.83-.15-3.52-.83-4.67-.31-5.14,2.3-7,10-14.28,8.86-10.57-1.7-20.84.26-32.08-3.69-27-9.5-34.55-30.86-36.8-54.3-2.5-26.23,21.6-57.53,45.72-58.73,6.48-.32,27.56.84,35.42,3.18,2,.59,4.87,1.92,5.94,1.09C1314.49,766.92,1327.39,774.06,1341.18,770.74Zm-35.93,57.44c.2-13.78-4.41-21.89-14.82-25.12-5-1.57-10.89-4.26-15.35-3-5.76,1.68-11.51,6-15.42,10.71-6.32,7.59-11.25,16.32-7,27.12,5.19,13.32,20.18,21.7,34.17,18.87C1295.38,855.06,1305.08,840,1305.25,828.18Z"/>
	<path d="M396.39,781.24c1-3.9,1.53-5.92,2.06-7.94.52-.52,1.05-1.5,1.58-1.51,11-.09,22-.07,32.66-.07.56,2.57,1.12,3.93,1.12,5.3.05,36.41,0,72.83,0,110.21h-35l-1.63-7.39c-6,2.85-11.58,6.59-17.7,8.07-5.63,1.36-11.87,0-17.81.35-10.81.6-18.49-5-26.81-11-22.8-16.58-24.84-40.28-21.68-64.5,1.35-10.36,7.59-20.91,16.18-28.88,6.92-6.44,13.78-12.48,24-12.26,2.19,0,5.16.74,6.47-.39,12-10.27,21.05-.92,30.63,4.36C392.56,776.66,394,778.87,396.39,781.24Zm1.53,32.91c-8.55-8.1-16.09-18.92-30.69-14.11-20.9,6.89-20.38,23.75-18.16,41.44,4.74,4.81,10,10.1,15.13,15.32,3.89,0,7.64.24,11.35,0,13.67-1,21.72-9,22.32-22.21C398.17,827.86,397.92,821.14,397.92,814.15Z"/>
	<path d="M766.24,843.62H685.83c11.35,12.13,28.38,19.41,42.07,12,11.79-6.34,15.72-.81,22.2,5.09a49.51,49.51,0,0,0,7.07,5c.35,13.46-9.39,13.73-14.86,16.67-21.51,11.56-60.1,8.79-79.19-14-17.58-21-20.93-62.78,1.09-78.06,7-4.89,12.37-11.65,20.09-16.33,7.27-4.4,17.09,2.34,22-6.86,9.54,2.28,20.15,2.61,28.41,7.18,25,13.87,29.55,28.39,31.5,53.57C766.54,832.29,766.24,836.78,766.24,843.62Zm-33.27-28c-4.45-5.63-6.64-10.07-10.2-12.44-3.88-2.58-9.45-5.2-13.55-4.34a36.43,36.43,0,0,0-24.1,16.78Z"/>
	<path d="M1085.94,772h34.25c.61,4.22,1.19,8.32,2,14,8.74-8,15-18.64,28.14-14.51,12.52-9,22.34,2.12,31.87,6.1,8.56,3.56,13.12,13.5,15.74,24.26,5,20.29,3.35,40.55,4,60.87.87,26-1.09,26.21-25.56,25.45-2.91-.09-5.82,0-10.42,0,0-18.92.17-37.34-.1-55.76-.09-6.3-.64-12.14-3.43-18.68-2.57-6-3.17-12.38-10.22-12.92a29.61,29.61,0,0,0-16.67,3.87c-5.57,3.39-9.69,9.17-15.17,14.64v68.42h-34.48Z"/>
	<path d="M999.78,928.56h-29.4c-6.13-9.45.74-16.33,4.72-21.82,12.84-17.74,8.73-32.45,0-51.39-10.33-22.44-24.36-43.63-29.8-68.39-1.09-4.94-5.15-9.23-8.36-14.71h34.41c7.64,6.41,8.8,16.56,12.35,25.67,5,12.86,15.11,23.55,16.32,38.16.09,1.06,3.22,2.27,5.09,2.62,1,.19,3.49-1.45,3.41-2-1.67-10.25,6.31-16.93,9.41-25.36,3.81-10.35,8.72-20.3,13.37-30.33,1.48-3.18,3.64-6,5.49-9h34.78C1046.94,824.46,1025.61,877.41,999.78,928.56Z"/>
	<path d="M511.24,849.09c-22.33-6.36-40.65-15-54.9-30.47V785.87c6.42-4.48,12.89-10.69,20.61-13.91s16.7-5.1,24.85-4.36a47.49,47.49,0,0,1,22.95,8.86c6.58,4.88,10.89,12.83,17.62,21.2-8.41,3.37-16.3,7.14-24.58,9.48-2.58.73-6.53-2-9.38-3.84-9.64-6.32-9.56-6.44-22.07,2.84,12.22,5.23,23.13,10.67,34.56,14.61,14.43,5,21.87,15.6,25,29.32,2.14,9.31-10,30.46-20.57,33.2-16.27,4.23-33.24,10.54-50,.47C464.06,877,453.27,869.88,451,854.4l23.76-7a35.82,35.82,0,0,1,4.17,2.87C494.57,865.17,494.56,865.18,511.24,849.09Z"/>
	<path d="M1762.67,792.41l22.22-20.67,30.45-4.36c3.15,5.68,9.43,2.78,13.59,5,3.79,2,6.9,5.76,9.54,9.32,4.11,5.55,7.58,11.6,12,18.54-9.25,2.7-17,5.29-24.91,7.06-2.44.54-7.59-.85-7.74-1.9-1.91-13-11.39-4.18-17.73-8v12.67c12.46,5.6,27.14,7,39.48,16.53,9.37,7.2,14.47,14.16,13.68,25.64-.25,3.71,0,7.45,0,11.18-28.18,39.69-79,30.75-94.74-5.95,8.11-3.22,16.08-6.79,24.34-9.45,3.17-1,5.22.83,8,4.39,9.45,12.23,15.6,11.72,27,.1-3.92-11.74-16.08-9.81-24.41-13.31-14-5.89-24.57-12.36-27.85-23.2C1763.29,808.5,1763.54,800.24,1762.67,792.41Z"/>
	<path d="M1747.28,790.63c-4.82,12.15-12.62,10.48-17.74,13.41-6.92,4-10.43,3.1-17.47,0-17.68-7.78-22.13-5.64-38.5,10.15,0,7.35-.39,14.83.1,22.26.75,11.4,10.48,20.11,22,20.35,2.25,0,5.27.94,6.61-.16,6.82-5.62,15.75-7.55,23.24-7.69,6.56-.13,13.24,6.67,20.93,11-1.41,3.66-1.85,8.66-4.59,11.21-10.55,9.78-22.51,16.22-37.73,17.3-22.87,1.62-40.33-6.88-56-22.79-5.32-5.39-6-11.31-7.45-17.24-5.25-21.69-5.49-41.32,10.92-58.3,13-13.49,28.48-19.21,44.79-22.42,13.15-2.59,25.93,4.7,37.16,12.3C1738.48,783.34,1743,787.25,1747.28,790.63Z"/>
	<path d="M572.31,745.1h36.08V771h27v27.08H609c0,16.3-.26,31.08.09,45.84.25,11,5.84,15.51,17,10.73,7.15-3.06,9.15,3.17,9.28,4.27.87,7.33.45,14.82.45,22.32-14.27,6.92-14.27,6.92-44.6,6.92-1.9-2.37-5-6.55-8.4-10.39-6.44-7.17-10.15-15-9.88-25.06.48-17.73.14-35.47.14-53.73L556,798.1V772.53l16.3-1.7Z"/>
	<path d="M1584.44,888.2V772.43c10.6-2.27,22.21.22,35.23-1.4,0,36,.12,70.82-.09,105.61,0,7.62-4.2,11-12.41,11.53-2.23.15-4.48,0-6.71,0Z"/>
	<path d="M1584.48,731.61h34.45V757h-34.45Z"/>
</svg>