<svg id="Layer_1" data-name="Layer 1" xmlns="http://www.w3.org/2000/svg" viewBox="0 0 1784 338">
	<path d="M1756.4,290v22.91c-11.32,4-1713.61,5.1-1734.57,1V291C34,287.59,1732.34,286.42,1756.4,290Z"/>
	<path d="M1553,35.74c19.2-8.94,31.19-7.47,42,3.91q52.38,54.93,104.49,110.1c3.63,3.84,6.39,8.48,9.56,12.76l4.4-2.22V141.93c0-23.66.1-47.31,0-71-.11-18.08-2.14-20.49-18.51-27.65-3.22-1.41-5.34-5.33-8-8.09,3-1.62,6-4.58,9.12-4.65,19.8-.42,39.61-.22,58.27-.22,4.28,8.08,1.12,11.39-4.1,13-12.6,3.9-15.72,13.21-15.67,25,.15,40.85,0,81.71.22,122.56,0,7.48,2.16,14.93,2.21,22.4,0,3.71-1.51,9.28-4.11,10.65-2.92,1.53-8.6.41-11.72-1.62-4.84-3.17-8.62-8-12.71-12.28q-54.26-56.49-108.47-113c-1.78-1.85-3.9-3.36-7.33-6.29-.71,4-1.48,6.33-1.49,8.67-.08,28,.18,55.91-.16,83.86-.15,12.62,3,22.31,16.73,25.59,1.55.37,3.42.88,4.35,2,1.83,2.17,3.88,4.71,4.22,7.3.14,1.1-3.73,2.86-5.93,4-.85.47-2.11.24-3.19.24-17.25,0-34.51.23-51.75-.22-3.1-.08-6.12-3-9.18-4.57,1.65-2.46,2.79-6.38,5-7.15,16.16-5.6,17.46-18.16,17.18-32.52-.51-25.79,0-51.6-.18-77.4C1568.13,78.22,1571.42,55.1,1553,35.74Z"/>
	<path d="M147.07,118.5c4.22,1.58,7.66,2.69,11,4.14,17.67,7.81,28.23,20.73,29.7,40.5,1.56,21-7,37.59-25.34,46.41-13.7,6.58-29.41,11.21-44.51,12.17-28.4,1.79-57,.46-85.52-.05-3.64-.06-9.39-2.18-10.4-4.8-2.32-6,3.18-8.19,8.1-9.31,14.15-3.23,18.24-12.62,18.08-26.17-.44-35.95-.29-71.92-.08-107.88.07-12.26-2.77-22.1-15.58-27.06-2.64-1-4-5.23-6-8C29.52,36.92,32.56,34,35.63,34c29.06-.32,58.13-.53,87.18,0a56.29,56.29,0,0,1,35.6,13.41c19.26,16.11,20.16,43.66,1.88,60.87C156.54,111.83,152.11,114.65,147.07,118.5Zm-63.33,9.13c0,22.65,0,41.32,0,60,0,9.75,6.28,15.21,14.76,16.23,10,1.2,20.7,1.8,30.27-.61,7-1.76,14.73-7.53,18.6-13.71,12.21-19.49.23-50.46-22.13-56.73C112.75,129.31,99.22,129.42,83.74,127.63Zm.07-12.48c13.82-1.27,25.13-1.25,35.85-3.76,5.45-1.27,11.32-6.16,14.4-11,6.71-10.67,4-30-4.16-39.19-10.09-11.34-23.57-12.17-37-9.6-3.63.7-8.45,7.19-8.69,11.27C83.23,79.19,83.81,95.65,83.81,115.15Z"/>
	<path d="M828.09,30.34c55.32-1.8,97.6,41.55,97.31,97.58s-42,98.13-97.89,97.75c-55.14-.37-97-39.14-96.66-98.68C731.18,65.43,780,28.72,828.09,30.34Zm-3.48,20.49c-27.26,0-42,9.39-51.85,27.79-8.64,16.22-7.67,33.51-5.79,50.46,3.25,29.19,16.25,53.26,42.62,68.43,31.6,18.19,69.22,3,78.33-32,8.55-32.85,1.38-63.12-19.49-89.43C856,60.38,839.39,50.52,824.61,50.83Z"/>
	<path d="M359.23,41.46c6.19-8.34,25.55-10.48,67-7.68,5.43.36,11.26,0,11.13,7.93C416.85,56.1,416.83,56.1,416.85,83.29c0,24.18-.35,48.37.24,72.54.94,38,31,58.38,66.86,45.72,16.1-5.68,26.39-17,28.8-33.76,2-14.27,2.44-28.83,2.84-43.28.46-16.11-.11-32.24.16-48.36.26-14.7-3.22-26.67-19.54-30.84-1.35-.35-2.38-2-4.26-3.58,1.21-2.27,2.3-6.3,3.54-6.34,18.79-.71,37.59-1.09,56.39-1,2.17,0,4.32,3.64,6.21,5.34-1,2.1-1.19,3.72-1.85,3.92-17.17,5.16-20.46,17.51-19.76,33.74,1,23.6.47,47.28.2,70.93C536.29,181,525,207.88,492.24,219.9s-64.08,7.87-90.72-15.47c-15.85-13.89-20.79-33.49-21-54-.27-24.72-.63-49.46.11-74.16.44-14.84-2.1-26.69-18.31-31.4C361,44.46,360.22,42.59,359.23,41.46Z"/>
	<path d="M1240.23,76.1c-11.1-24.92-31.54-25.8-52.59-24.7-13.32.7-18.44,5.71-19,19-.51,11.79,0,23.62-.1,35.44,0,8.85,4.47,12.16,13.1,12.31,19.55.33,38.51-1.43,56.52-12.55-.6,16.89-8.22,29.92-17.36,44.19-12.18-10.12-24.31-16-39.17-15.14-8.37.48-13.37,2.6-13.17,11.93.25,12.35-.37,24.73.25,37,.71,14.09,5.59,19.54,19.66,20.61,24.45,1.85,47.12-2.43,65-21.47,2.76-3,7.73-3.86,11.67-5.71.71,4.44,2.78,9.18,1.88,13.26-5,22.78-18,31.94-41.29,31.62-33.38-.47-66.77-.19-100.15-.21-3.77,0-7.71.8-11.25-.07-2.66-.65-6.33-3.08-6.76-5.27s2.36-6.84,4.32-7.2c23.45-4.22,23.06-21.21,22.72-39.28-.59-31.14-.49-62.3,0-93.44.2-13.43-2.09-24.39-16.23-30-2.62-1-3.94-5.34-5.86-8.13,3.09-1.53,6.17-4.37,9.28-4.4,40.39-.33,80.78-.22,121.17-.32,8.32,0,12.26,3.41,10.17,11.9C1250.61,55.09,1250.7,65.64,1240.23,76.1Z"/>
	<path d="M698.05,74.61c-4.84-1.89-6.36-2-6.74-2.7-12-22.18-32.84-21.51-53.52-20.25-10.53.65-15.56,6-16.12,16.63-.68,12.85-.15,25.77-.24,38.66-.06,8.44,4.71,11.09,12.38,11.1,17.87,0,35.66-.06,51.22-10.9,1.2-.84,3-.91,4.49-1.19.46-.08,1,.33,3.33,1.2-2.19,15.23-10.58,27.78-18.37,42-4.33-2.65-7.32-4.58-10.4-6.34-3.72-2.13-7.3-4.76-11.3-6.09-23.51-7.82-31.41-2.2-31.41,22,0,8.6-.35,17.22.24,25.78.88,12.74,5,17.95,17.34,19.32,25,2.77,48.36-1.3,66.63-20.76,1.47-1.56,2.65-3.67,4.44-4.59,2.15-1.11,5.3-2.29,7.11-1.46s3.52,4,3.75,6.28c1.77,18-17.18,38.73-35.27,38.74q-56.55,0-113.1-.13c-2.15,0-4.74.63-6.36-.32-2.46-1.45-5.17-3.74-6-6.25-.48-1.48,2.21-5.64,3.93-5.94C589.66,205,587.6,186,587.37,167.28q-.57-45.92,0-91.85c.17-12.89-2.41-23.25-15.74-28.7-2.77-1.13-4.35-5.17-6.49-7.87,3.48-1.71,6.94-4.87,10.42-4.9q59.79-.59,119.59-.25c10.45,0,12.34,2.4,10.35,12.87C703.79,55.72,700.77,64.61,698.05,74.61Z"/>
	<path d="M1044.47,28.84c12.63,2.27,25.63,3.34,37.8,7.1,16,4.93,18.59,14.21,10.63,28.56-3.5,6.31-8.31,8.29-14.72,5.78a94,94,0,0,1-12.9-6.62c-16.64-9.72-34.86-11.31-53.2-8.59-16.48,2.44-28.53,12.22-34.85,28-17,42.29.26,104.54,62,114.25,15,2.36,28.78-1.67,42.63-6.06,3.58-1.13,6.84-3.38,10.46-4.19,5.45-1.23,9.64,3.78,7.08,8.79a32.2,32.2,0,0,1-8.31,9.63c-56.75,46.94-141.7,2.52-150.25-54.94C930.55,81.5,973.62,27.89,1044.47,28.84Z"/>
	<path d="M353.86,174.15c3.43,30.43-12.39,48.13-37.59,47.85-35-.4-70-.16-105-.2-3.22,0-6.73.79-9.59-.23a11,11,0,0,1-6.07-5.93c-.56-1.58,2-4.29,3.33-6.43a2.19,2.19,0,0,1,1.44-.63c20.86-3,22.2-17.54,21.84-34.51-.7-33.28-.62-66.58,0-99.87.26-14.5-3-25.41-18.67-29.28-1.43-.35-2.59-1.78-6.23-4.42,5-2.9,8.21-6.25,11.46-6.33q30.68-.75,61.37,0c2.85.07,5.62,3.55,8.43,5.46-1.87,2.25-3.36,5.88-5.67,6.52-13.21,3.65-15.27,13.22-15.19,24.94.24,37.05-.06,74.1.16,111.15.09,17.09,3.72,21.32,20.47,22.18,24.46,1.24,47.13-3.3,64.27-23.09C345,178.56,348.93,177.2,353.86,174.15Z"/>
	<path d="M1405.23,28.47,1519,224.72H1292.31C1330.35,158.62,1367.18,94.6,1405.23,28.47Zm92.94,185.16L1405.1,52.49c-31.14,54-61.51,106.6-93,161.14Z"/>
	<path d="M1478.16,201.36H1337c1.17-11.83,54.73-106.89,69.73-123.23Zm-72.9-101.43-50,86.92c18.26,4.49,87.27,3.73,99.54-1Z"/>
	<path d="M1437.35,178.17h-63.16c9.69-19.45,19.58-35.8,31.43-54.49C1416.41,142.22,1425.89,158.49,1437.35,178.17Z"/>
</svg>