<svg id="Layer_1" data-name="Layer 1" xmlns="http://www.w3.org/2000/svg" viewBox="0 0 1456 437">
	<path d="M360,211.69c0,44.68.07,89.37,0,134.06-.06,26.45-10.72,37-37.35,37-82.46.06-164.93-.59-247.38.35-25.08.29-38.95-15.56-38.74-38.47q1.2-134.05,0-268.11c-.25-26,16.2-39.26,38.23-39,82.45.81,164.92.3,247.38.3a87,87,0,0,1,9.7.21c16.69,1.85,27.61,13,28,29.93.55,22.06.19,44.15.2,66.22Q360,172.92,360,211.69ZM87.52,147.35c5,7.37,9.9,13.1,13,19.67,3.17,6.73,5,14.19,6.66,21.5,8.08,36.13,16.09,72.27,23.65,108.5,1.84,8.79,4.28,15.71,13.34,20C179.33,333.68,216,340.51,254,331.19c33.69-8.26,58.74-32.69,54.72-70.73-1.52-14.37-8-26.6-16.56-37.9-3.2-4.24-6.72-8.23-10.16-12.43,1.32-2.94,2.44-5.35,3.5-7.79,19.2-44,2.42-86.37-42.06-104.58-34.05-13.94-68.57-13-102,1.6A114.37,114.37,0,0,0,87.52,147.35Z"/>
	<path d="M551.55,210.15c9.7,14.62,12.72,30.36,7.71,46.61-9.71,31.47-37.81,40.9-67,36.53a10.94,10.94,0,0,1-5.76-2.67c-17.27-17-34.65-33.89-51.41-51.37-5.45-5.68-4.41-12.3.61-17.33,4.74-4.76,11.29-5.22,17.56-.78a70.46,70.46,0,0,1,8.32,7.63c10.75,10.58,21.17,21.51,32.32,31.65,3.64,3.32,9,6.27,13.73,6.61,19.87,1.44,32.92-18,24.61-36.12a40.09,40.09,0,0,0-6.42-9.17c-10.06-11.5-10.43-13.89.38-25.4,8.31-8.85,10.72-18.43,6.44-29.57-4.47-11.65-14.3-15.63-25.69-16.06-12.91-.49-25.86-.18-38.8-.12-2.64,0-5.28.45-8.4.73-3.89,13.69-2.12,24.84,9.26,34.78,12.14,10.6,22.95,22.72,34.21,34.31,4.9,5,7.19,10.78,2.78,17.42-4.66,7-12.79,8.78-19.41,2.52-17.22-16.26-33.76-33.25-50.52-50-1.11-1.11-2.47-2.68-2.49-4-.3-18.1-1-36.23-.14-54.28.26-5.56,6.77-7.81,12.67-7.79,23.18.09,46.43-1,69.5.57,33,2.25,54.49,39,42.51,70.8C556.45,200.11,554.18,204.41,551.55,210.15Z"/>
	<path d="M1330.8,245.75c8.93,20.29,30.11,27.28,48.36,17,2.78-1.57,5.08-4,7.78-5.72,7.45-4.82,14.26-4.48,18.84.76,4.91,5.61,4.18,13.72-2.63,19.94-17.35,15.86-38,19.94-60,13.48A62.27,62.27,0,0,1,1300.57,215c9.1-33.07,43.37-52.67,77-44,24,6.16,43.73,29.44,46.07,54.48,1.23,13.1-3.58,19-17.28,19.31-19.88.45-39.78.09-59.68.19C1341.57,245,1336.43,245.46,1330.8,245.75Zm61.57-28.34c-8.35-15.69-20.42-22.78-34.85-21-13.62,1.63-22.64,8.93-25.86,21Z"/>
	<path d="M674.84,169.36c34.63-.1,62.45,27.41,63.06,62.38.57,33-29.56,62.42-63.63,62.07-34.49-.36-62.1-28.66-62-63.5C612.42,197,640.71,169.46,674.84,169.36Zm-.58,97.77c19.43.37,36.26-15.92,36.44-35.26.17-18.68-15.53-35.17-34.19-35.9-19.41-.77-36.92,15.4-37.27,34.41C638.88,250,654.86,266.76,674.26,267.13Z"/>
	<path d="M1210.83,212c0,8.07.42,16.17-.07,24.2-1.85,30.31-26.76,54.89-57.73,57.32-30.25,2.38-59.88-17.26-64.76-46.57-3.5-21-2.4-42.83-2.25-64.28.07-8.89,5.9-13.24,13.37-13.11,7.19.13,12.65,4.76,13.13,13.63.82,15,.5,30.11.46,45.17,0,10,2,19.14,9.16,26.72,10.19,10.82,22.52,14.94,36.61,10.3,15.21-5,24.11-16.26,25.29-32.25,1-12.84.3-25.8.4-38.71,0-4.3-.27-8.67.35-12.89,1.11-7.59,6.07-11.89,12.84-11.93s12.31,4.14,12.89,11.77c.77,10.16.19,20.42.19,30.63Z"/>
	<path d="M984.34,211.42c0,9.14.69,18.34-.13,27.41-2.64,29.26-28.1,52.85-58.45,54.77-30.13,1.91-59.58-18.54-64-47.68-3.1-20.55-2.06-41.79-1.88-62.72.07-9,5.57-13.52,12.86-13.62,7.71-.11,13.18,5,13.62,14.86.67,15-.44,30.16.65,45.15.55,7.69,2.78,16.06,6.79,22.55,7.7,12.43,23.25,17.5,36.79,14.06a36.32,36.32,0,0,0,27.15-32.51c.92-14.47.29-29,.43-43.55.14-14.36,3.68-20,12.63-20.5,9.43-.52,13.7,5.84,14,20.81,0,.54,0,1.07,0,1.61v19.36Z"/>
	<path d="M1023.36,169.56c14.76,0,26.61-.48,38.39.18a12.24,12.24,0,0,1,11.77,12.94c-.34,6.51-3.5,11.38-10.33,12.6a68.22,68.22,0,0,1-11.27.56c-8.6.07-17.2,0-28,0-.2,16-2.47,31.29,2.06,46.5,3.71,12.47,12.9,19.44,24.68,23.48,2.5.86,5.31.79,7.94,1.34,10.68,2.22,16.08,8,14.73,15.58-1.39,7.88-7.52,11.35-18.86,10.66-30.25-1.81-56.06-26.86-57.19-57.75-1.15-31.72-.53-63.52-.29-95.28.09-10.8,5.55-16.44,13.84-16,7.64.38,12,5.54,12.47,15.79C1023.67,149.17,1023.36,158.22,1023.36,169.56Z"/>
	<path d="M795.59,150.6c9,9,15.34,15.37,21.61,21.82,2.6,2.69,5.66,5.26,7.29,8.49,2.86,5.67,2.47,11.64-2.3,16.34s-10.74,4.35-16.34,1.32c-2.3-1.24-4.2-3.32-6.09-5.21q-21-21.13-41.89-42.39c-2.24-2.28-4.61-4.67-6.06-7.46-4.17-8-.21-16.63,8.61-18.75a41,41,0,0,1,9.61-.66c31.16,0,62.32-.12,93.48,0,14.11.05,20,3.94,20.29,12.84.35,9.4-5.91,13.57-21,13.64C841.85,150.67,820.93,150.6,795.59,150.6Z"/>
	<path d="M776.71,251.25c0,8.92.27,15.8-.1,22.64a40.53,40.53,0,0,1-2.36,12.48c-2.24,5.72-7.65,8.38-13.1,6.51-4-1.36-9.61-5.54-9.81-8.74a378.7,378.7,0,0,1,0-49.74c.24-3.4,7-7.45,11.48-9.12,4.21-1.55,9.45-.33,18.18-.33-8.34-8.37-14.31-14.18-20-20.2-3.32-3.47-7-6.91-9.19-11.06-3-5.64-2.25-11.54,2.88-16.12s10.68-4.46,16.2-.65a36.8,36.8,0,0,1,4.89,4.19c14.51,14.4,28.94,28.87,43.48,43.23,5.33,5.26,9.1,11.11,5.57,18.6-3.11,6.61-9.45,8.28-16.26,8.3C798.92,251.27,789.29,251.25,776.71,251.25Z"/>
	<path d="M1248.37,177.57c13.3-3.09,24-6.47,35-7.85,8.83-1.11,14.15,3.87,14.95,11,.81,7.28-3.16,12.4-11.78,14.77-2.57.7-5.35.6-7.95,1.21-16.71,4-27.92,16.93-28.7,34.32-.59,13.37-.14,26.8-.23,40.2,0,3.75.18,7.58-.54,11.22-1.44,7.25-6.9,11.47-13.67,10.95s-11.7-4.49-11.78-11c-.44-33.76-.76-67.54,0-101.29.24-10.5,11.5-14.8,20.3-8.91C1246.55,173.87,1248,177.13,1248.37,177.57Z"/>
	<path d="M600.06,231.28c0,14,.06,27.93,0,41.9,0,3.74.55,8.18-1.21,11-2.29,3.68-6.22,7.43-10.22,8.71-5.5,1.75-10.84-1.1-13-6.81a37.06,37.06,0,0,1-2-12.52q-.25-41.91-.06-83.81c.07-13.81,4.29-19.93,13.17-20.1s13.18,5.73,13.36,19.7S600.06,217.31,600.06,231.28Z"/>
	<path d="M587,150.43c-7,0-13.42-6.46-13.3-13.43a13.25,13.25,0,0,1,13.84-12.64c7.06.4,12,5.45,12.23,12.39A13.06,13.06,0,0,1,587,150.43Z"/>
	<path d="M176.58,288.22c.83-19.22,1.79-20.3,16.88-21.51,22.36-1.81,30.47-.47,46,8.11C220,287.54,198.69,286.23,176.58,288.22Z"/>
	<path d="M228.05,182.54l-32.26-7.12C212.2,163.08,222.05,164.92,228.05,182.54Z"/>
</svg>