<svg id="Layer_1" data-name="Layer 1" xmlns="http://www.w3.org/2000/svg" viewBox="0 0 1873 446">
	<path d="M154.76,387.81c-4.42-25.65,8.37-44.49,9.35-66.75-14.2,0-28.62.1-43,0-13.42-.13-13.78-.15-16.81-13.78-8.57-38.64-16.85-77.35-25.18-116-6-27.71-11.71-55.47-17.76-83.17-3.28-15-1.36-18,14-19.68,31.46-3.35,62.93-6.57,94.38-9.91,29.86-3.17,59.72-6.24,89.54-9.69,33.53-3.88,67-8.26,100.53-12.18,13.32-1.55,26.69-2.93,40.08-3.46,10.69-.43,13.24,3.44,11.79,13.87-3.16,22.76-5.91,45.58-9.12,68.33-3.89,27.51-8.2,55-12.07,82.48q-3.9,27.81-7,55.72c-1.6,14.37-4.38,17.73-18.89,18-19.94.37-39.93.82-59.83-.15-13.79-.68-24.55,3.43-35.31,11.92C237.34,328.57,204.6,353,172,377.55,167.5,380.93,162.3,383.36,154.76,387.81Z"/>
	<path d="M1102.6,153.05c15.57,1.88,30.35-4.67,43.41,5.68a64.94,64.94,0,0,1,79.31,19.33c18.83,24.92,22.32,61-.31,91-16.44,21.78-45.68,28.65-79.81,17.07-.56,3.63-1.51,7.06-1.55,10.5-.17,15,.06,30.06-.12,45.08-.16,13.42-1.09,14.23-15,14.45-8,.13-16,0-23,0-1.48-1.32-1.91-1.64-2.27-2s-.89-.83-.89-1.25q-.47-94.95-.82-189.9C1101.56,160.41,1102.09,157.82,1102.6,153.05Zm97.76,69.62c-2.91-8.47-4.78-17.49-9-25.27-7-13-22.79-16.34-35.69-10.23-20.52,9.73-26.34,48.42-5.67,66.7,11.27,10,28,9.29,37.2-1.49A55.5,55.5,0,0,0,1200.36,222.67Z"/>
	<path d="M1347.31,290.89c0-20.9.34-40.18-.13-59.45-.27-11.2-1.67-22.4-2.87-33.56-.69-6.49-4.63-10.43-10.84-12.64-14-5-34.18,1.4-34.22,22q-.07,32.26-.07,64.53c0,3.76,0,7.53-.12,11.29-.18,5.07-2.89,8.18-8,8.28-10.65.21-21.3.06-31.6.06-2.92-13.73-3.37-184.26-.69-201.5a112.31,112.31,0,0,1,38.28.41c4,12.38,1.6,24.74,2,36.86.41,11.79.09,23.6.09,37.72,16.54-15.79,35.58-13.29,53.72-11.24,18.86,2.13,32.74,18.83,33.39,40,1,31.66.25,63.37.25,95.79C1374.11,293.33,1362,291.35,1347.31,290.89Z"/>
	<path d="M1759.79,243l28.76,24.91c-7.27,5.89-12.72,12.08-19.57,15.53-27.28,13.75-55,12.34-82.09-.69-18.56-8.94-26.89-26.49-30.54-45.1-3.86-19.66-1.68-39.17,10.39-56.91,12.22-18,29.1-26.41,50-27.8,12.32-.82,24.54-.35,36.57,3.92,28.94,10.26,46.81,44.33,38.91,73.72h-93.64c.66,13.73,8,20.63,18,25.2C1729.89,261.84,1739.94,258.82,1759.79,243Zm-59.1-38.91h51.82c-3.94-5.12-5.93-9.72-9.43-11.76-5.34-3.13-11.59-5.68-17.7-6.35C1714.74,184.79,1706.5,191.11,1700.69,204.07Z"/>
	<path d="M1548.72,230.88h-95.48c-1.26,12.37,1.34,17.21,11.59,22.62,18.06,9.54,33,3.56,47.47-11,8.7,8.16,17.12,16.07,26,24.4-8.87,12.45-19.12,20.6-34,23.16-18.27,3.15-36.45,4.29-54-2.22-33.95-12.61-48-44.23-43.2-77.56,2.7-18.91,11.08-35.86,28.3-46.61,28.14-17.55,73.14-15.33,94.49,11,8.23,10.16,14.38,21.19,15.51,34.59C1546,215.58,1547.3,221.76,1548.72,230.88Zm-96.79-28.75c13,3.66,38,3.61,50.57-.12-4.63-11.66-14.53-15.93-25.36-15.87S1456.34,190.28,1451.93,202.13Z"/>
	<path d="M668.82,230.77H573.18c-1.5,12.32.93,17.28,11.38,22.59,12.61,6.39,23.46,10.79,47.85-10.48l25.35,23.62c-4.22,12.82-14.86,17.89-25.12,21.34-20.83,7-42.51,7.37-63.22-.38-22.78-8.52-35.92-25.56-41-49.67a74.78,74.78,0,0,1,2.53-40.9c9-26.2,28.28-39.85,54.66-43.63A82.31,82.31,0,0,1,616,154.77c28.37,6.89,45.43,24.93,49.31,54.43C666.11,215.44,667.31,221.63,668.82,230.77ZM623,202.92c-5.68-12.42-15.49-17.43-27-16.79-10.51.59-20.82,4.28-23.6,18.57,15,0,29.25.05,43.53-.07C617.85,204.62,619.79,203.73,623,202.92Z"/>
	<path d="M889.5,294.05c-41-.92-68.51-30.59-72.18-67.8-3.44-34.77,26.92-69.93,62.6-73.27,30.8-2.89,56.45,6,72.84,33.89,25.35,43.12-1.3,90.76-34,99.77C909,289.31,899.24,291.59,889.5,294.05Zm32.1-70.24c-1.52-6.17-2.13-12.75-4.71-18.45-8.43-18.69-31.65-27.09-48.34-8.61-14.13,15.65-12.13,43.36,4.86,55.93,7,5.16,14.79,7.71,24.06,4.37C911.93,251.84,920.45,240.41,921.6,223.81Z"/>
	<path d="M1081.31,176.78l-26.8,26.47c-3.21-2.77-6.65-6-10.35-8.88-6.71-5.26-14.48-7.36-22.73-5.36-2.54.62-5.76,3.71-6.22,6.13s1.42,6.41,3.55,7.92c3.37,2.39,7.78,3.34,11.78,4.81,11.56,4.23,23.32,8,34.64,12.73,21.33,9,22.8,44,3.16,59.62-24.5,19.49-73.83,15.65-95.5-13.15,4.22-4.27,8.87-8.54,13-13.27,3.88-4.47,7.18-9.42,11.12-14.68,6.21,5.37,9.65,8.55,13.3,11.47,8.25,6.58,17.79,7.4,27.48,4.77,2.35-.63,4.7-4.29,5.32-7,.34-1.46-2.62-4.23-4.65-5.55s-5-1.75-7.53-2.57c-10.14-3.31-20.64-5.83-30.34-10.13-16-7.09-26-19.3-24.73-37.67,1.28-18,12.73-29.24,28.54-35.69,15.5-6.33,31.59-5.81,47.2.34C1062.56,161.49,1072.66,167.48,1081.31,176.78Z"/>
	<path d="M807.72,266.49c-24,26.1-54.08,32.14-85.72,20.53-28.52-10.46-41-32.85-43.51-60.23-2.49-26.87,9.26-49,32.78-63.83,29.4-18.54,78.49-12.21,95.45,15.2-8.28,7.83-16.73,15.82-25,23.63-25.21-19.37-38.74-20.28-53-4.42C716,211.62,717.07,236.57,731,250c14.56,14,28.64,12.32,50.16-6.94,4.12,3.68,8.36,7.52,12.65,11.3S802.7,262.1,807.72,266.49Z"/>
	<path d="M1565.16,153.12c11.06,0,20.17-.15,29.27,0,6.22.14,6.22.36,12.46,9.37,12.65-11.88,27.79-11,43.61-8.44,4,11.14-.06,20.49-2.52,29.33-9.28.58-17.68.27-25.73,1.82-9.28,1.78-15,8.09-15.69,17.91-1,13.33-2.21,26.65-2.6,40-.45,15.43-.11,30.89-.11,46.87-13.71,2.44-25.73,2.09-38.69.46Z"/>
</svg>