<svg id="Layer_1" data-name="Layer 1" xmlns="http://www.w3.org/2000/svg" viewBox="0 0 1367 732">
	<path d="M442.85,274.86c-3-129.38,104.24-245.43,245.21-244.44C825.79,31.38,932.25,141,931.87,277,931.5,408,825.52,521.14,685.1,520.54,552.92,520,439.78,411.46,442.85,274.86ZM683.63,57c-7,10.9-8.12,23.31-10.75,35.15-5.8,26.19-11,52.52-17,78.66-1.42,6.13-5,11.87-8.14,17.46-2.23,3.94-6.13,6.34-10.93,5.09-10.89-2.83-21.92-5.37-32.48-9.17s-20.69-9.1-31-13.63c-18.09-7.92-36.78-11.44-59.12-7.3L526,168.74c17.15,7.8,34.82,14.64,51.27,23.69a216.5,216.5,0,0,1,36.69,26.08c10.22,8.85,14.86,20.91,10.86,34.92-2.35,8.23-3.56,17-7.14,24.64-8,17-16.67,33.74-25.82,50.16-13.35,24-27.53,47.46-41,71.37-3.94,7-7.22,14.56-7.48,23a72.48,72.48,0,0,0,10.23-12.47c23.92-34.44,44-71.55,71.36-103.59,7.59-8.88,14.37-18.82,26.76-23.39,3.88,32.58,7.25,64.51,11.58,96.3,8.08,59.33,13.11,79.74,22.08,93.56,0-4.67.35-8.92-.06-13.1-1.74-17.6-5-35.14-5.39-52.76-2.08-82.88-.23-165.74,3.14-248.56.13-3.21,1-6.39,1.1-9.6q.72-45.09,1.19-90.18C685.38,58.46,684.69,58.09,683.63,57Zm141,359.3,4.16-1.83c-2.2-5.24-3.93-10.75-6.7-15.67q-22.56-40-45.58-79.83c-10.74-18.68-21.1-37.54-26.78-58.5-3.33-12.26-4.86-24.83,4.32-35.23,6.71-7.61,14-15.24,22.45-20.67,22.65-14.57,46.43-27.2,72.11-35.84,3.44-1.16,6.68-2.91,10-4.39-12.09-2.25-23.89-4.3-35.34-.15-17.15,6.22-34.07,13.07-51.21,19.29-10.58,3.84-21.27,7.47-32.14,10.31-7.66,2-14-1.07-16.67-9-4-11.64-8.48-23.22-11.22-35.18-6-26.12-11-52.48-16.56-78.7-.76-3.56-2.82-6.84-4.28-10.25-1.8,40.05-2.52,79.25-1.57,118.42.75,31.08,4.48,62.09,5.22,93.17,1.2,51.05,1.14,102.15-2.72,153.14-.65,8.54-2.09,17-2.61,25.56-.44,7.3-.09,14.65-.09,22a18.13,18.13,0,0,0,4.92-8.66c10.92-41.62,16.19-84.16,20.81-126.83,1.93-17.92,4.73-35.76,7.36-55.34,4.23,3.7,7.07,6.07,9.8,8.57,18.39,16.86,32.87,36.87,46.56,57.55C793.93,371.08,809.33,393.66,824.59,416.33ZM632.15,182.07c1.74-.92,7.53-2.26,10.31-5.9,3.85-5,1.61-11.38-1.77-16.59-5.8-8.94-20.56-13.72-30.11-9.93-7.24,2.88-10.15,10-6.61,17.09C609,176.82,617.35,181.82,632.15,182.07Zm112-.12c13.81,0,24.78-8.48,26-19.85.82-7.86-2.52-12.24-10.46-13.22-10.27-1.27-19.35,1.31-26.06,9.55-3.75,4.62-7.17,9.72-3.91,16.14C732.79,180.68,738.21,182.33,744.16,182Z"/>
	<path d="M1052.86,688.25l-15.82-.78c.85-4.78,1.07-8.4,2.17-11.74,7.22-22,14.63-43.83,22-65.74.17-.51.24-1.06.44-1.55,2.18-5.37,3.14-11.91,10.81-12.38,6-.37,9.75,3.05,12.8,12.08,5.15,15.24,10,30.57,15.88,48.39,2.31-5.51,4.1-8.92,5.2-12.55,3.74-12.32,7.22-24.73,10.85-37.09a25.94,25.94,0,0,1,1.86-4.46c2.85-5.55,7-7.62,11.56-5.76,5.2,2.1,5.34,6.55,4.15,10.83-3,10.86-6.38,21.63-9.77,32.38-4.19,13.32-8.55,26.59-12.85,39.89-1.58,4.87-3.83,8.52-10,8.74-6.83.26-9.54-3.51-11.34-9.11-5.08-15.79-10.25-31.54-15.84-48.71-6.26,5.06-6.39,11.74-8.41,17.35-2.37,6.56-4.37,13.26-6.61,19.88C1057.88,674,1055.71,680.09,1052.86,688.25Z"/>
	<path d="M259.92,649.87V634.72c10.61-.21,20.64-.36,30.67-.64,4.82-.13,9.79.13,14.4-1,5-1.21,8.62-5.07,8.29-10.54-.35-5.74-4.6-8.31-10-8.44-11.29-.26-22.59-.2-33.88-.36-4.45-.06-8.68-.59-9.93-6.08-1.45-6.34,1.17-11.11,7.54-11.56,15.59-1.09,31.27-1.07,46.41,3.21,12.43,3.51,19.24,19.76,14.68,33.28-.84,2.47-2.5,4.66-4.3,7.91,7.31,6.22,10.33,14.33,9.36,24.09-1,9.5-5.29,16.39-14.33,19.51A65.49,65.49,0,0,1,301.67,688c-10.18.62-20.43.39-30.65.11-9.31-.26-12-2.69-11.74-9.38.27-6.27,2.39-8.16,11.09-8.47,9.13-.33,18.28,0,27.43-.13,3.75,0,7.83.5,11.17-.78,3-1.17,6.94-4.16,7.39-6.86.47-2.86-1.88-7.71-4.45-9.2-3.91-2.26-9-3.1-13.7-3.25C286,649.59,273.67,649.87,259.92,649.87Z"/>
	<path d="M1239.29,685.7c-17.82,4.06-75.06,3.31-85.92-.7,2-13.72,2.74-14.67,15.2-14.87,15-.24,30-.06,45.13-.06-1.89-15.44-9.12-32.86-19.1-45.78-4.09,9.45-7.93,18.15-11.66,26.9-4.94,11.61-5.08,11.72-21,9.94,1.64-5.09,2.91-10.06,4.81-14.78q7.56-18.69,15.62-37.18c1.48-3.41,3.15-7,5.62-9.68,5.72-6.25,14.78-4.74,18.21,3.13q15.15,34.75,29.67,69.77C1237.56,676.58,1238.16,681.24,1239.29,685.7Z"/>
	<path d="M442.69,684.92c-15.06,4.38-75.48,4.3-88,.52,1.29-13.74,2.29-15,14.58-15.25,11.31-.26,22.63,0,33.94-.12,4.16-.06,8.31-.66,14.62-1.2L398.67,623c-3.14,4.48-5.52,7-6.94,10.07-3.18,6.81-5.6,14-8.87,20.75-4.76,9.87-5.54,10-20,6.38,7.82-18.92,15.53-37.73,23.37-56.48,2-4.83,5.6-7.72,11.18-7.78,4.83,0,8.24,1.73,10.18,6.3C419.07,629.38,430.62,656.53,442.69,684.92Z"/>
	<path d="M213.73,653.29l19.49,30.46c-3.94,1.66-7.1,4.16-10,3.91a14.94,14.94,0,0,1-9.23-4.9,76.81,76.81,0,0,1-10.64-16.1c-4.42-9.24-11.52-12-21-10.81-2.63.33-5.27.57-7.88.85-5.1,7.12-2.07,14.93-3,22.17-.58,4.67-1.69,8.88-7.38,8.52-4.68-.29-8.26-2.73-8.3-8.06-.09-12.26,0-24.51,0-38.3,10.31-.25,19.28-.26,28.23-.76,6.39-.36,12.89-.77,19.06-2.28,8.13-2,11.09-6,10.54-11.88-.58-6.28-5.58-11.31-13.06-12-6.95-.59-14-.25-21-.33-5.38-.07-10.77,0-16.14-.26-4.24-.19-7-2.29-7.56-6.82-.61-5,1.24-9.16,6.16-9.75,18.21-2.19,36.69-3.47,53.8,4.69,14.69,7,18.78,28.65,8.58,41.8C221.84,646.81,218.17,649.28,213.73,653.29Z"/>
	<path d="M616.44,613.87c-2.21-16.39-1.4-18.06,11.18-17.93a280.24,280.24,0,0,1,35.21,2.59c12.15,1.66,20,8.37,23.49,21,3.56,12.87-.47,21.89-10.31,29.54-1.21.94-2,2.42-4,4.91l17.46,29.33c-6.65,6.14-12,5.75-16.66.74a58,58,0,0,1-9.35-13c-6.44-12.72-15.61-18.77-31.86-13.37-.35,3.65-.87,8.22-1.18,12.81-.23,3.21.06,6.47-.29,9.66-.56,5.25-4.28,7.33-9,7.31s-6.43-3.61-6.48-7.67c-.17-12.28-.07-24.56-.07-37.19,10.9-3.86,21.17-1.3,31.12-2.34,6.32-.66,12.81-1.51,18.71-3.67,4.42-1.63,8.33-5.44,6.88-11.33-1.37-5.54-4.3-10.05-10.48-10.85a106.45,106.45,0,0,0-12.89-.48C637.73,613.83,627.55,613.87,616.44,613.87Z"/>
	<path d="M527.48,654.38c0-12.25,0-24.49,0-36.74,0-4.83,0-9.67.29-14.49.27-4.41,3-6.86,7.31-7s7.15,2,7.86,6.39a31.07,31.07,0,0,1,.37,4.81q0,34.65,0,69.3c0,4.31.12,9-5.14,10.65-4.91,1.55-9.61,1.27-13-3.39L464.81,601c3.88-2.15,6.88-5.18,8.83-4.61,4.3,1.26,9.12,3.47,11.86,6.82,8.82,10.8,16.77,22.29,25.08,33.5,4.44,6,8.94,11.94,13.4,17.9Z"/>
	<path d="M811.69,600.68c12.79-6.42,15-6.2,21.57,2.65,9.3,12.47,18.26,25.19,27.46,37.73,3.43,4.68,7.13,9.15,13.14,16.81,0-16.4,0-29.16,0-41.93,0-4.29-.76-8.93.65-12.75,1.05-2.82,4.75-5.72,7.8-6.5,4.38-1.1,6.68,2.45,7.2,6.68a52.94,52.94,0,0,1,.28,6.43c0,21.48.07,43,0,64.44,0,4.68,1.12,10.21-4.49,12.73-6.88,3.09-11.17-1.43-15-6.13-4.06-5-7.95-10.13-11.73-15.33C843.15,644.29,827.83,623,811.69,600.68Z"/>
	<path d="M92.34,687.91c-2.57-8-3-14,4.09-18.06,8.48-4.89,10.74-12.78,10.73-21.82q0-17.65,0-35.31c0-3.2-.78-6.93.58-9.47,1.53-2.83,4.82-5.75,7.82-6.41,2.23-.48,5.6,2.21,7.75,4.24,1.33,1.25,1.8,3.9,1.85,5.94.38,18.69,1.77,37.59-3.27,55.8C118.07,676.77,108,685.06,92.34,687.91Z"/>
	<path d="M78.9,687.36c-21.42-4.78-31.78-16.16-33-37.87-.89-16-.18-32.18-.18-49.13l11.91-3.8c1.46,2.07,3.09,3.32,3.14,4.63.43,10.73.38,21.48.87,32.2.29,6.39,1.42,12.74,1.93,19.13.61,7.49,3.58,13.44,10.43,17C82.2,673.85,81.15,680.3,78.9,687.36Z"/>
	<path d="M1280.66,642.07c0,9.69,0,19.38,0,29.07,0,3.23,0,6.47-.28,9.68-.36,4.4-3,6.9-7.33,7s-7.79-2-7.83-6.41q-.3-39.56,0-79.09c0-4.39,3.68-6.43,8-6.23s7.09,2.84,7.15,7.2c.18,12.91.07,25.83.07,38.75Z"/>
	<path d="M957.92,614c-8.57,0-17.15,0-25.73,0-5.23,0-7.89-2.94-8.79-7.62s2.35-9,8-10.19a47.3,47.3,0,0,1,9.61-.48c13.94.05,27.9-.23,41.81.46,7.31.36,10.17,4.33,9.5,10.26-.7,6.23-4.94,7.63-10.29,7.61-8,0-16.08,0-24.13,0Z"/>
	<path d="M719.27,613.94c-1.18-16.91-.62-17.85,12.19-18.11s25.7-.14,38.54,0a36.36,36.36,0,0,1,9.48,1.22c4.87,1.4,6.48,5.13,5.77,10-.63,4.35-3.23,6.82-7.51,6.85C758.58,614,739.43,613.94,719.27,613.94Z"/>
	<path d="M958.65,670.38c8,0,16.08-.34,24.08.12,5,.29,9.53,2.25,9.6,8.59s-4.48,8.55-9.46,8.67c-16.58.39-33.19.38-49.78.13-5.25-.07-9.67-2.91-9.7-8.67s4.27-8.58,9.56-8.81c8.55-.37,17.13-.1,25.7-.1Z"/>
	<path d="M751.68,670.39c8,0,16-.34,24,.13,5,.29,9.52,2.14,9.64,8.48s-4.34,8.6-9.32,8.73c-16.52.41-33.07.49-49.6.14-6.14-.13-8.58-3.68-8.32-9.36.24-5.13,3-8,8-8.12,8.53-.24,17.07-.07,25.6-.07Z"/>
	<path d="M985.32,634.23v15.44c-19,0-37.12.07-55.22-.06-4.36,0-7-2.62-7.15-7.06-.21-5.21,2.64-8.2,7.69-8.25C948.29,634.13,965.94,634.23,985.32,634.23Z"/>
	<path d="M718.67,649V635c19.66-1.78,38.75-.69,59.45-.72.28,5.08.52,9.43.82,14.73Z"/>
	<path d="M1308.28,688c-3.18,0-6.4.34-9.53-.07-6-.78-8.32-3.9-8-9.63.29-5.1,3.08-7.79,8-8,5.82-.24,11.66-.2,17.49-.16,5.39,0,9.25,1.94,9.52,8.14s-2.27,9.1-9.56,9.81c-2.62.25-5.29,0-7.94,0Z"/>
	<path d="M1035.26,624.53c-15.69,3.8-16.24,3.62-20.13-8.27-1.65-5-2.81-10.25-4.16-15.29,10.55-6.37,14.26-5.59,18,4.15C1031.4,611.44,1033.17,618,1035.26,624.53Z"/>
	<path d="M466.13,657.66h14.93c.09,8.32.46,16.09.15,23.83-.18,4.35-3.45,6.44-7.7,6.31s-7.15-2.5-7.31-6.85C465.94,673.65,466.13,666.33,466.13,657.66Z"/>
	<path d="M812.44,658.42c3.53-.67,5.53-1.33,7.54-1.36a30.65,30.65,0,0,1,5.59.82c.93,1.54,1.9,2.4,1.93,3.3.25,6.36.56,12.74.36,19.09-.17,5-3.2,7.79-8.33,7.53-4.37-.23-6.91-2.86-7-7.16C812.29,673.34,812.44,666,812.44,658.42Z"/>
</svg>